<mxfile host="app.diagrams.net" modified="2023-09-28T18:05:58.849Z" agent="Mozilla/5.0 (X11; Linux x86_64; rv:109.0) Gecko/20100101 Firefox/114.0" version="22.0.0" etag="WZcN1y6uIfFIvcbZvcWx" type="github">
  <diagram name="PÃ¡gina-1" id="5rmpCkhPDLKvEJoNIAEf">
    <mxGraphModel>
      <root>
        <mxCell id="0" />
        <mxCell id="1" parent="0" />
      </root>
    </mxGraphModel>
  </diagram>
</mxfile>
